<?xml version="1.0" standalone="no"?>
<!DOCTYPE svg PUBLIC "-//W3C//DTD SVG 20010904//EN"
 "http://www.w3.org/TR/2001/REC-SVG-20010904/DTD/svg10.dtd">
<svg version="1.0" xmlns="http://www.w3.org/2000/svg"
 width="512.000000pt" height="512.000000pt" viewBox="0 0 512.000000 512.000000"
 preserveAspectRatio="xMidYMid meet">
<metadata>
Created by potrace 1.11, written by Peter Selinger 2001-2013
</metadata>
<g transform="translate(0.000000,512.000000) scale(0.100000,-0.100000)"
fill="#000000" stroke="none">
<path d="M4 3831 c-2 -2 -4 -576 -4 -1275 l0 -1271 2558 0 2557 1 3 1272 c2
1014 0 1272 -10 1273 -39 4 -5100 3 -5104 0z m793 -634 l2 -148 -151 3 -151 3
1 120 c0 66 1 132 1 148 l1 27 148 -2 147 -3 2 -148z m638 1 l1 -148 -151 0
-151 0 2 148 c1 81 2 148 3 149 0 1 67 1 148 0 l148 -2 0 -147z m639 -1 l1
-147 -151 0 -152 0 0 149 0 149 150 -1 150 -2 2 -148z m636 3 c0 -149 0 -150
-22 -151 -24 -1 -71 -1 -200 0 l-78 1 0 149 0 149 150 1 150 1 0 -150z m638
-1 l2 -149 -43 -1 c-261 -5 -257 -5 -258 16 -1 28 -1 235 0 263 1 23 1 23 150
21 l148 -1 1 -149z m1280 -2 l-3 -150 -466 0 c-257 0 -471 3 -476 6 -6 4 -10
283 -4 294 0 1 215 2 476 1 l476 -1 -3 -150z m-3830 -637 l0 -150 -149 0 -149
0 -1 25 c0 14 0 68 0 120 0 52 0 109 0 125 l1 30 149 0 149 0 0 -150z m637 0
l0 -150 -147 0 c-82 0 -149 3 -149 8 -4 22 -5 269 -1 280 3 9 42 12 151 12
l146 0 0 -150z m638 12 c-1 -75 -2 -143 -2 -149 -1 -10 -38 -13 -150 -13
l-150 0 0 150 0 150 152 0 152 0 -2 -138z m637 -12 l0 -150 -150 0 -150 0 0
150 0 150 150 0 150 0 0 -150z m639 0 l0 -150 -149 0 c-143 0 -150 1 -151 20
0 11 0 72 0 135 0 63 0 122 0 130 1 13 25 15 150 15 l150 0 0 -150z m636 0 l0
-145 -150 -3 -150 -2 0 150 0 150 150 -2 150 -3 0 -145z m636 120 c0 -16 0
-77 0 -135 0 -58 0 -112 0 -120 -1 -13 -24 -15 -149 -15 l-149 0 0 150 -1 150
149 0 149 0 1 -30z m-1266 -756 l0 -149 -1112 -2 c-834 -1 -1113 2 -1114 10
-1 7 -2 73 -3 147 l-1 135 175 5 c96 3 598 4 1115 4 l940 -2 0 -148z m624 137
c5 -8 7 -250 2 -283 -1 -4 -66 -7 -146 -7 -107 0 -145 3 -146 12 -1 6 -2 73
-3 147 l-1 135 24 5 c46 9 263 2 270 -9z m637 6 c4 -4 8 -214 5 -278 -1 -14
-20 -16 -149 -17 l-149 -1 -1 149 -1 149 37 3 c58 5 252 1 258 -5z m-3818
-146 l0 -150 -149 1 c-82 0 -149 3 -150 7 -1 8 -1 263 0 279 1 9 38 12 150 12
l148 0 1 -149z"/>
</g>
</svg>
