<?xml version="1.0" standalone="no"?>
<!DOCTYPE svg PUBLIC "-//W3C//DTD SVG 20010904//EN"
 "http://www.w3.org/TR/2001/REC-SVG-20010904/DTD/svg10.dtd">
<svg version="1.0" xmlns="http://www.w3.org/2000/svg"
 width="1280.000000pt" height="1276.000000pt" viewBox="0 0 1280.000000 1276.000000"
 preserveAspectRatio="xMidYMid meet">
<metadata>
Created by potrace 1.15, written by Peter Selinger 2001-2017
</metadata>
<g transform="translate(0.000000,1276.000000) scale(0.100000,-0.100000)"
fill="#000000" stroke="none">
<path d="M4600 12749 c-1217 -85 -2313 -580 -3160 -1429 -788 -790 -1271
-1788 -1404 -2905 -153 -1278 200 -2564 983 -3585 181 -237 501 -570 726 -759
316 -263 641 -473 1020 -657 537 -261 1052 -404 1715 -476 183 -19 720 -16
925 5 703 75 1359 282 1948 614 l98 56 87 -85 c48 -46 805 -782 1683 -1634
877 -853 1618 -1571 1646 -1596 227 -202 530 -311 818 -295 180 10 292 40 460
122 132 65 213 125 323 239 341 355 427 879 217 1323 -62 132 -134 231 -260
359 -60 61 -829 808 -1707 1658 -879 851 -1598 1551 -1598 1555 0 5 25 51 55
102 135 226 282 545 377 814 182 516 271 993 285 1540 20 806 -143 1565 -491
2280 -239 491 -521 893 -896 1279 -379 389 -794 695 -1275 942 -789 404 -1704
594 -2575 533z m502 -1973 c478 -20 1000 -194 1425 -475 1366 -904 1746 -2702
857 -4061 -221 -338 -521 -638 -864 -863 -892 -586 -2052 -635 -2983 -127
-736 401 -1266 1079 -1468 1877 -68 269 -83 398 -83 713 0 236 3 296 23 420
49 316 127 569 260 845 151 314 327 560 576 810 463 465 1049 757 1695 845 90
13 355 28 405 23 17 -1 87 -5 157 -7z"/>
</g>
</svg>
